<svg xmlns="http://www.w3.org/2000/svg" viewBox="0 0 800 430"><rect width="800" height="430" fill="#e8d7b6"/><g fill="none" stroke="#c6b592" opacity=".35"><path d="M80 80h640v280H80zM80 150h640M80 220h640M80 290h640M160 80v280M240 80v280M320 80v280M400 80v280M480 80v280M560 80v280M640 80v280"/></g><g stroke="#ffffff50" stroke-width="2"><path d="m302 263 87-50 87 50-87 50z" fill="#9da893"/><path d="m302 263 87 50v69l-87-50z" fill="#829980"/><path d="m389 313 87-50v69l-87 50z" fill="#698872"/><path d="m387 213 87-50 87 50-87 50z" fill="#b1bdd0"/><path d="m387 213 87 50v69l-87-50z" fill="#98abc2"/><path d="m474 263 87-50v69l-87 50z" fill="#7b93b1"/><path d="m302 125 87-50 87 50-87 50z" fill="#eee4d0"/><path d="m302 125 87 50v138l-87-50z" fill="#d3bc93"/><path d="m389 175 87-50v138l-87 50z" fill="#bca177"/><path d="m215 213 87-50 87 50-87 50z" fill="#d4ad92"/><path d="m215 213 87 50v69l-87-50z" fill="#ba937b"/><path d="m302 263 87-50v69l-87 50z" fill="#a37c68"/></g><text x="37" y="45" fill="#9d8968" font-family="sans-serif" font-size="11" letter-spacing="4">BETWEEN THE BLOCKS</text><text x="37" y="397" fill="#9d8968" font-family="sans-serif" font-size="10" letter-spacing="2">PLACEHOLDER ARTWORK</text></svg>
